<svg width="160" height="160" viewBox="0 0 160 160" fill="none" xmlns="http://www.w3.org/2000/svg">
<rect x="1" y="1" width="158" height="158" rx="34.52" fill="url(#paint0_radial_28_7184)"/>
<rect x="1" y="1" width="158" height="158" rx="34.52" stroke="#2A3052" stroke-width="2"/>
<path d="M51 98.3049C51 82.2886 63.9837 69.3049 80 69.3049C96.0163 69.3049 109 82.2886 109 98.3049" stroke="white" stroke-width="9" stroke-linecap="round"/>
<path d="M33 98.3049C33 72.3475 54.0426 51.3049 80 51.3049C105.957 51.3049 127 72.3475 127 98.3049" stroke="#C9A8FF" stroke-width="9" stroke-linecap="round"/>
<path d="M15 98.1151C15 62.3214 44.1015 33.3049 80 33.3049C115.899 33.3049 145 62.3214 145 98.1151C145 98.1784 145 98.2417 145 98.3049" stroke="#9FB0FF" stroke-width="9" stroke-linecap="round"/>
<path d="M82.7832 87.8785C83.7052 87.8208 84.8381 88.2664 85.6429 88.7023C85.9118 88.8479 86.1509 89.0133 86.4102 89.1576C85.6921 89.5208 84.9815 90.1876 84.5293 90.844C84.4146 91.0105 84.2774 91.2008 84.2223 91.3973C84.1683 91.5854 84.1947 91.7874 84.295 91.9555C84.3973 92.1292 84.5665 92.2533 84.7629 92.2987C85.3277 92.4284 85.5395 91.9701 85.8149 91.5936C87.9002 88.7441 90.7478 90.7323 90.0149 93.8638C89.8276 93.8913 89.6335 93.8921 89.4447 93.9154C87.8199 94.1159 86.4657 95.1795 85.7874 96.6579C85.441 97.4115 85.2855 98.2388 85.3346 99.0668C85.3586 99.4617 85.3921 99.8368 85.8196 100.002C86.0082 100.076 86.2188 100.07 86.403 99.9862C86.9877 99.7151 86.7815 99.1318 86.794 98.6559C86.8031 98.3157 86.8827 97.8959 86.9981 97.5779C87.3062 96.7301 87.8727 96.0536 88.6866 95.6454C89.9194 95.027 91.7772 95.3803 92.851 96.1928C93.7805 96.8961 93.9085 98.5188 93.8338 99.5863C93.8106 99.9195 93.6997 100.368 93.7364 100.709C93.8097 100.955 94.1104 101.46 94.2409 101.753C94.7282 102.846 95.0864 104.218 94.6634 105.381C94.2336 106.562 93.0416 107.179 91.9085 107.517C91.6067 107.621 91.2531 107.645 90.9636 107.774C90.5885 107.94 90.462 108.439 90.6587 108.78C90.7577 108.952 90.9224 109.077 91.1152 109.126C91.3163 109.175 91.5794 109.116 91.78 109.073C92.5793 108.9 93.3442 108.595 94.0435 108.171C94.2742 108.031 94.5062 107.867 94.73 107.715C95.2643 108.402 95.316 109.412 95.0597 110.216C94.8428 110.912 94.4597 111.545 93.9434 112.06C93.8297 112.172 93.7434 112.254 93.6127 112.342C93.4415 112.464 93.2232 112.484 93.0421 112.582C92.5278 112.859 92.7075 113.376 92.7736 113.824C92.8614 114.42 92.8141 115.028 92.6352 115.603C92.286 116.724 91.3187 117.958 90.1276 118.199C89.7952 118.266 89.4173 118.216 89.1707 118.438C88.9834 118.607 88.9246 118.881 88.8294 119.112C88.5375 119.818 88.0069 120.4 87.3298 120.755C86.2675 121.303 84.9646 121.173 83.8568 120.83C82.8574 120.507 82.0367 119.925 81.5522 118.98C81.1733 118.242 81.2366 117.755 81.2367 116.968V115.217L81.2366 109.845L81.2364 100.375V97.9697C81.2362 97.4346 81.225 96.8991 81.2422 96.3648C81.2682 95.5594 82.022 95.2514 82.7203 95.2029C83.0107 95.1827 83.2781 95.2496 83.5499 95.1122C83.8864 94.9572 83.9974 94.5795 83.8981 94.236C83.6483 93.3729 81.7612 93.819 81.2405 94.0887C81.2262 92.9577 81.2369 91.8062 81.2366 90.6738C81.2373 90.4105 81.2364 90.1472 81.2338 89.8839C81.2301 89.6441 81.2111 89.367 81.2514 89.1353C81.3 88.8615 81.4208 88.6057 81.6011 88.394C81.9337 87.9996 82.29 87.9174 82.7832 87.8785ZM87.0999 105.431C87.7895 106.442 88.9699 106.954 90.1894 106.941C90.8349 106.935 91.2285 106.38 90.8749 105.783C90.6488 105.4 90.1582 105.507 89.7945 105.452C89.2929 105.383 88.6893 105.106 88.3774 104.697C88.22 104.491 88.1152 104.249 88.072 103.994C90.4041 103.521 91.6552 101.386 92.1341 99.2227C92.2845 98.5441 92.3137 97.8086 91.3524 97.8739C90.6885 98.048 90.7866 98.641 90.6399 99.1823C89.9174 101.849 88.1026 103.566 85.3549 101.978C85.1626 101.867 84.976 101.747 84.7954 101.617C84.4606 101.381 84.187 101.09 83.736 101.209C83.5562 101.257 83.4031 101.376 83.3104 101.537C83.211 101.709 83.1845 101.913 83.2371 102.105C83.3077 102.359 83.4723 102.475 83.6679 102.629C83.988 102.88 84.3283 103.103 84.6865 103.295C85.0686 103.502 85.469 103.672 85.883 103.804C86.0851 103.866 86.3892 103.934 86.5681 104.002C86.657 104.539 86.8005 104.97 87.0999 105.431ZM87.1967 112.782C86.9116 112.925 86.67 113.026 86.3941 113.194C85.4632 113.759 84.7672 114.641 84.4334 115.677C84.2861 116.12 84.0533 117.286 84.2711 117.714C84.3603 117.892 84.5192 118.025 84.7103 118.082C84.9054 118.142 85.1167 118.118 85.293 118.015C85.6567 117.802 85.6586 117.506 85.6623 117.142C85.7032 115.121 87.2801 113.99 89.1394 113.795C89.3973 113.768 89.7131 113.78 89.9572 113.69C90.7008 113.315 90.4229 112.244 89.5629 112.302C89.258 112.323 88.969 112.341 88.6731 112.378C88.6628 111.014 88.205 109.605 87.2339 108.611C86.3917 107.748 84.9529 107.078 83.7317 107.088C83.718 107.088 83.7042 107.088 83.6905 107.089C83.4366 107.09 83.2583 107.088 83.0573 107.284C82.9138 107.427 82.8364 107.623 82.8434 107.825C82.8483 108.024 82.9362 108.212 83.0857 108.344C83.301 108.535 83.542 108.541 83.8136 108.56C84.7545 108.624 85.7934 109.134 86.3914 109.868C86.8405 110.419 87.1401 111.369 87.1985 112.074C87.219 112.31 87.2184 112.547 87.1967 112.782Z" fill="white"/>
<path d="M77.9147 87.8788C78.7942 87.803 79.5667 88.2132 79.7439 89.1195C79.7873 89.3411 79.7634 89.7232 79.7628 89.9593L79.7612 91.4143C79.7615 93.142 79.7845 94.9263 79.754 96.6496C79.4299 96.3025 78.7529 96.0375 78.2886 96.0144C77.6796 95.9841 76.5873 96.0459 76.5577 96.8661C76.5429 97.2772 76.9103 97.6359 77.3214 97.6063C77.5577 97.5892 77.7729 97.4572 78.0147 97.4656C78.4255 97.4702 78.708 97.6471 78.9894 97.9353C79.3744 98.3295 79.629 98.8324 79.7188 99.3759C79.7828 99.7642 79.7618 100.519 79.7617 100.936L79.7612 103.481C79.7612 106.46 79.7875 109.484 79.7559 112.459C79.6448 112.331 79.5318 112.252 79.4027 112.147C78.94 111.771 78.4556 111.53 77.8727 111.402C77.4714 111.314 76.5428 111.269 76.2004 111.504C76.0355 111.617 75.9258 111.794 75.8983 111.992C75.8684 112.191 75.9205 112.393 76.0425 112.553C76.3877 113.001 76.8819 112.742 77.397 112.809C78.0826 112.899 78.7908 113.439 79.1907 113.981C79.4286 114.301 79.5976 114.667 79.6871 115.056C79.7213 115.206 79.7438 115.358 79.7543 115.511C79.7777 115.865 79.7592 116.398 79.7622 116.767C79.7467 117.195 79.796 117.683 79.7322 118.104C79.3947 120.326 76.6565 121.401 74.6553 121.074C73.6346 120.917 72.7512 120.279 72.2805 119.36C72.1382 119.078 72.0725 118.773 71.9084 118.529C71.7075 118.229 71.3403 118.276 71.0307 118.224C70.1272 118.09 69.5062 117.547 68.9924 116.845C68.222 115.793 68.0351 114.623 68.3008 113.364C68.3674 113.072 68.2153 112.642 67.9013 112.556C67.3538 112.407 67.0463 112.121 66.6954 111.659C66.3222 111.184 66.0484 110.639 65.8902 110.056C65.6475 109.171 65.8091 108.484 66.2503 107.714C66.4284 107.838 66.6104 107.965 66.7948 108.082C67.5592 108.568 68.4117 108.916 69.2994 109.095C69.5723 109.15 69.8467 109.183 70.0883 109.011C70.4895 108.723 70.4936 108.104 70.0889 107.817C69.8859 107.685 69.4918 107.625 69.2457 107.56C68.3151 107.312 67.2936 106.859 66.7027 106.071C65.705 104.74 66.2177 102.827 66.8935 101.464C67.1794 100.886 67.3292 100.876 67.2342 100.205C67.04 98.9116 67.0699 96.9451 68.2532 96.1044C69.0625 95.5293 70.4554 95.215 71.4263 95.3778C72.9283 95.6297 73.9719 96.8452 74.1738 98.3227C74.1952 98.492 74.2025 98.6627 74.1955 98.8332C74.1831 99.1511 74.1093 99.5028 74.3201 99.7768C74.5687 100.1 75.0712 100.142 75.3796 99.8788C75.5977 99.6926 75.638 99.4184 75.6584 99.1473C75.7553 97.8141 75.3198 96.4969 74.4474 95.4841C73.7691 94.6883 72.8395 94.1478 71.8123 93.9522C71.5349 93.9002 71.2444 93.8831 70.9623 93.861C70.8245 92.901 70.8023 92.0281 71.3382 91.1595C71.6124 90.7152 72.0408 90.3777 72.5567 90.2658C73.6069 90.0382 74.5043 90.7302 75.122 91.5075C75.3109 91.7311 75.4399 92.0596 75.6952 92.216C76.0346 92.4237 76.5154 92.2947 76.7057 91.9465C76.933 91.5306 76.7187 91.2099 76.4885 90.872C75.993 90.1443 75.3534 89.5891 74.593 89.1558C74.7322 89.0895 75.0829 88.8468 75.2641 88.7489C76.1317 88.2798 76.9245 87.956 77.9147 87.8788ZM74.7869 106.099C75.1169 105.503 75.0859 105.402 75.2489 104.787C76.2488 104.546 77.1165 104.185 77.9468 103.567C78.307 103.3 78.681 103.035 78.5394 102.516C78.4924 102.339 78.3746 102.188 78.2134 102.099C77.7899 101.863 77.477 102.078 77.1452 102.323C76.2566 102.977 75.1232 103.566 73.989 103.359C72.3871 103.048 71.4897 101.361 71.1408 99.9012C71.0835 99.6613 71.0553 99.2807 70.9512 99.0715C70.8874 98.9419 70.7844 98.8356 70.6568 98.7677C70.4804 98.6754 70.3282 98.6823 70.1406 98.6956C69.2896 98.9289 69.6105 99.8976 69.7816 100.516C70.3302 102.498 71.5887 104.383 73.7384 104.805C73.5826 105.356 73.373 105.68 72.8609 105.968C72.6149 106.108 72.346 106.204 72.0665 106.249C71.8657 106.282 71.6404 106.275 71.4305 106.298C70.6361 106.386 70.5645 107.493 71.3153 107.71C71.4786 107.758 71.6609 107.755 71.8333 107.748C72.4573 107.727 73.0662 107.551 73.6047 107.235C74.1251 106.932 74.4722 106.606 74.7869 106.099ZM71.5143 113.182C70.9273 113.107 69.9021 112.892 69.8066 113.746C69.783 113.946 69.8423 114.146 69.9708 114.301C70.1183 114.479 70.3456 114.563 70.5733 114.568C71.5601 114.592 72.4947 114.899 73.3018 115.469C74.1473 116.066 74.5389 117.095 74.5321 118.108C74.5391 118.339 74.5702 118.538 74.7464 118.711C74.8888 118.851 75.0817 118.927 75.2812 118.922C75.4862 118.916 75.6799 118.826 75.8165 118.673C76.0521 118.408 76.0114 117.975 75.9897 117.644C75.9128 116.469 75.324 115.219 74.417 114.451C73.9906 114.088 73.5064 113.798 72.9844 113.594C72.9544 112.683 73.076 111.997 73.488 111.168C73.9886 110.162 75.0311 109.572 76.1121 109.389C76.3717 109.344 76.673 109.364 76.9195 109.264C77.176 109.147 77.3547 108.876 77.3467 108.588C77.3423 108.39 77.2572 108.203 77.1112 108.07C76.9027 107.88 76.6899 107.879 76.4298 107.891C74.968 107.984 73.7321 108.542 72.7387 109.642C72.0037 110.456 71.4589 112.085 71.5143 113.182Z" fill="white"/>
<defs>
<radialGradient id="paint0_radial_28_7184" cx="0" cy="0" r="1" gradientUnits="userSpaceOnUse" gradientTransform="translate(40.5 49) rotate(45.1458) scale(138.947 103.507)">
<stop stop-color="#1B2150"/>
<stop offset="1" stop-color="#10142A"/>
</radialGradient>
</defs>
</svg>
